<?xml version="1.0" encoding="UTF-8"?>
<svg width="126px" height="20px" viewBox="0 0 126 20" version="1.1" xmlns="http://www.w3.org/2000/svg" xmlns:xlink="http://www.w3.org/1999/xlink">
    <!-- Generator: Sketch 40.3 (33839) - http://www.bohemiancoding.com/sketch -->
    <title>spm-compatible</title>
    <desc>Created with Sketch.</desc>
    <defs>
        <rect id="path-1" x="0" y="0" width="126" height="20" rx="3"></rect>
        <linearGradient x1="0%" y1="0%" x2="0%" y2="100%" id="linearGradient-3">
            <stop stop-color="#BBBBBB" stop-opacity="0.1" offset="0%"></stop>
            <stop stop-color="#FFFFFF" stop-opacity="0.1" offset="100%"></stop>
        </linearGradient>
        <text id="text-4" font-family="Verdana" font-size="11" font-weight="normal" fill="#FFFFFF">
            <tspan x="58" y="14">compatible</tspan>
        </text>
        <filter x="-50%" y="-50%" width="200%" height="200%" filterUnits="objectBoundingBox" id="filter-5">
            <feOffset dx="0" dy="1" in="SourceAlpha" result="shadowOffsetOuter1"></feOffset>
            <feColorMatrix values="0 0 0 0 0.00392156863   0 0 0 0 0.00392156863   0 0 0 0 0.00392156863  0 0 0 0.3 0" type="matrix" in="shadowOffsetOuter1"></feColorMatrix>
        </filter>
        <text id="text-6" font-family="Verdana" font-size="11" font-weight="normal" fill="#FFFFFF">
            <tspan x="24" y="14">spm</tspan>
        </text>
        <filter x="-50%" y="-50%" width="200%" height="200%" filterUnits="objectBoundingBox" id="filter-7">
            <feOffset dx="0" dy="1" in="SourceAlpha" result="shadowOffsetOuter1"></feOffset>
            <feColorMatrix values="0 0 0 0 0   0 0 0 0 0   0 0 0 0 0  0 0 0 0.5 0" type="matrix" in="shadowOffsetOuter1"></feColorMatrix>
        </filter>
        <linearGradient x1="50%" y1="0%" x2="50%" y2="100%" id="linearGradient-8">
            <stop stop-color="#F88A36" offset="0%"></stop>
            <stop stop-color="#FD2020" offset="100%"></stop>
        </linearGradient>
    </defs>
    <g id="Page-1" stroke="none" stroke-width="1" fill="none" fill-rule="evenodd">
        <g id="spm-compatible">
            <g id="Clipped">
                <mask id="mask-2" fill="white">
                    <use xlink:href="#path-1"></use>
                </mask>
                <g id="Rectangle-path"></g>
                <g id="Group" mask="url(#mask-2)">
                    <polygon id="Shape" fill="#555555" points="0 0 53 0 53 20 0 20"></polygon>
                    <polygon id="Shape" fill="#44CC11" points="53 0 126 0 126 20 53 20"></polygon>
                    <polygon id="Shape" fill="url(#linearGradient-3)" points="0 0 126 0 126 20 0 20"></polygon>
                </g>
            </g>
            <g id="compatible" fill-opacity="1" fill="#FFFFFF">
                <use filter="url(#filter-5)" xlink:href="#text-4"></use>
                <use xlink:href="#text-4"></use>
            </g>
            <g id="spm" fill-opacity="1" fill="#FFFFFF">
                <use filter="url(#filter-7)" xlink:href="#text-6"></use>
                <use xlink:href="#text-6"></use>
            </g>
            <path d="M15.701125,15.7695833 C13.71765,16.8929167 10.990425,17.0083333 8.246625,15.8554167 C6.0250225,14.92875 4.18167,13.3066667 3,11.4533333 C3.567205,11.9166667 4.22893,12.2875 4.937915,12.6116667 C7.771475,13.91375 10.60444,13.8245833 12.598115,12.615 C12.59684,12.61375 12.59599,12.6129167 12.59514,12.6116667 C9.759115,10.48 7.348515,7.69958333 5.552465,5.42916667 C5.1741725,5.05841667 4.89057,4.595 4.6069675,4.17795833 C6.781225,6.12420833 10.2318425,8.58004167 11.4605175,9.27545833 C8.8612175,6.58754167 6.5449675,3.25129167 6.6393175,3.34379167 C10.7516175,7.42170833 14.5804425,9.73879167 14.5804425,9.73879167 C14.7070925,9.80879167 14.8048425,9.867125 14.8834675,9.91920833 C14.9663425,9.71254167 15.0390175,9.49795833 15.1002175,9.27545833 C15.7619425,6.912125 15.0058675,4.22420833 13.3513425,2.00004167 C17.1797425,4.27066667 19.4488175,8.53379167 18.5031925,12.102125 C18.4785425,12.198375 18.4517675,12.293375 18.4228675,12.3867083 C18.4339175,12.399625 18.4449675,12.4129583 18.4560175,12.4267083 C20.3464175,14.7437917 19.8266425,17.199625 19.5903425,16.7362917 C18.5648175,14.7687917 16.6663425,15.3704583 15.7011675,15.769625 L15.701125,15.7695833 Z" id="Shape" fill="url(#linearGradient-8)"></path>
        </g>
    </g>
</svg>